<svg xmlns="http://www.w3.org/2000/svg" width="100%" height="100" viewBox="0 0 800 100" preserveAspectRatio="xMidYMid meet">
  <rect width="800" height="100" fill="none"/>
  <g fill="#FFD700" stroke="#fdd835" stroke-width="2">
    <polygon points="10,50 20,60 30,50 20,40" />
    <polygon points="100,30 110,40 120,30 110,20" />
    <polygon points="200,70 210,80 220,70 210,60" />
    <polygon points="300,20 310,30 320,20 310,10" />
    <polygon points="400,60 410,70 420,60 410,50" />
    <polygon points="500,30 510,40 520,30 510,20" />
    <polygon points="600,50 610,60 620,50 610,40" />
    <polygon points="700,25 710,35 720,25 710,15" />
  </g>
</svg>
